<?xml version="1.0" encoding="iso-8859-1"?>
<!-- Generator: Adobe Illustrator 16.0.0, SVG Export Plug-In . SVG Version: 6.00 Build 0)  -->
<!DOCTYPE svg PUBLIC "-//W3C//DTD SVG 1.1//EN" "http://www.w3.org/Graphics/SVG/1.1/DTD/svg11.dtd">
<svg version="1.1" id="Capa_1" xmlns="http://www.w3.org/2000/svg" xmlns:xlink="http://www.w3.org/1999/xlink" x="0px" y="0px"
	 width="45.217px" height="45.217px" viewBox="0 0 45.217 45.217" style="enable-background:new 0 0 45.217 45.217;"
	 xml:space="preserve">
	 <style type="text/css" >
      <![CDATA[

	   path {
	       fill:   #ffffff;
	    }

      ]]>
    </style>
<g>
	<g>
		<path d="M22.609,0C12.295,0,4.756,17.997,4.756,27.364c0,11.691,10.116,17.853,17.853,17.853
			c13.594,0,17.852-12.307,17.852-17.853C40.461,17.997,32.922,0,22.609,0z M22.609,3.939c3.035,0,6.039,2.759,8.475,6.584
			l-3.625,1.99l-3.905-2.226c-0.604-0.344-1.344-0.344-1.95,0l-3.893,2.219l-3.563-2.004C16.581,6.688,19.579,3.939,22.609,3.939z
			 M11.847,14.777l0.939-0.521l3.964,2.23c0.604,0.339,1.342,0.336,1.94-0.005l3.888-2.215l3.887,2.215
			c0.303,0.171,0.639,0.258,0.976,0.258c0.326,0,0.652-0.081,0.947-0.243l4.088-2.243l0.604,0.341
			c0.084,0.047,0.17,0.079,0.256,0.112c1.166,2.549,2.072,5.264,2.613,7.815l-2.496-1.405c-0.594-0.334-1.315-0.339-1.914-0.01
			l-4.08,2.24l-3.906-2.226c-0.605-0.345-1.344-0.345-1.95,0l-3.893,2.219l-3.953-2.224c-0.597-0.335-1.323-0.337-1.922-0.005
			l-2.573,1.429C9.799,20.007,10.695,17.312,11.847,14.777z M22.609,41.277c-4.245,0-8.047-1.916-10.602-4.925l0.779-0.434
			l3.964,2.23c0.604,0.34,1.342,0.336,1.94-0.007l3.888-2.215l3.887,2.215c0.303,0.173,0.639,0.259,0.976,0.259
			c0.326,0,0.652-0.08,0.947-0.242l4.088-2.242l0.747,0.42C30.668,39.355,26.861,41.277,22.609,41.277z M35.361,32.999l-1.904-1.051
			c-0.594-0.333-1.317-0.337-1.916-0.009l-4.082,2.237l-3.904-2.226c-0.605-0.345-1.345-0.345-1.951,0l-3.893,2.219l-3.953-2.224
			c-0.597-0.336-1.323-0.336-1.922-0.006l-1.767,1.071c-0.755-1.688-1.041-3.771-1.054-5.742l3.853-2.185l3.923,2.229
			c0.604,0.34,1.322,0.336,1.921-0.005l3.878-2.215l3.881,2.215c0.594,0.336,1.318,0.345,1.921,0.015l4.094-2.242l4.121,2.268
			c0,0.004,0,0.009,0,0.013C36.605,29.37,36.127,31.273,35.361,32.999z"/>
	</g>
</g>
<g>
</g>
<g>
</g>
<g>
</g>
<g>
</g>
<g>
</g>
<g>
</g>
<g>
</g>
<g>
</g>
<g>
</g>
<g>
</g>
<g>
</g>
<g>
</g>
<g>
</g>
<g>
</g>
<g>
</g>
</svg>
