<?xml version="1.0" encoding="iso-8859-1"?>
<!-- Generator: Adobe Illustrator 16.0.0, SVG Export Plug-In . SVG Version: 6.00 Build 0)  -->
<!DOCTYPE svg PUBLIC "-//W3C//DTD SVG 1.1//EN" "http://www.w3.org/Graphics/SVG/1.1/DTD/svg11.dtd">
<svg version="1.1" id="Capa_1" xmlns="http://www.w3.org/2000/svg" xmlns:xlink="http://www.w3.org/1999/xlink" x="0px" y="0px"
	 width="31.531px" height="31.531px" viewBox="0 0 31.531 31.531" style="enable-background:new 0 0 31.531 31.531;"
	 xml:space="preserve">
	  <style type="text/css" >
      <![CDATA[

	   path, circle {
	       fill:   #ffffff;
	    }

      ]]>
    </style>
<g>
	<g>
		<circle cx="10.916" cy="5.233" r="2.815"/>
		<path d="M11.061,14.394c1.087,0.353,2.246,0.345,3.471-0.024c0.627-0.191,2.405-1.169,2.997-1.547l1.08,1.397
			c0.099,0.127,0.244,0.193,0.394,0.193c0.106,0,0.213-0.034,0.306-0.104c0.219-0.168,0.258-0.481,0.09-0.697l-1.156-1.497
			c0.088-0.153,0.139-0.309,0.168-0.469c0.041-0.628-0.238-1.192-0.238-1.192c-0.373-0.768-1.104-0.907-1.75-0.692l-0.625-0.81
			c-0.17-0.219-0.483-0.258-0.698-0.09c-0.217,0.168-0.257,0.481-0.089,0.697l0.55,0.711c-1.04,0.719-2.394,1.398-3.475,1.054
			c-0.504-0.159-0.901-0.524-1.193-0.908c-0.005-0.887-0.44-1.752-1.238-2.269C8.403,7.34,6.873,7.799,5.931,8.949
			c-1.299,1.584-1.967,6.152-2.065,9.562c0.005-0.002-0.106,1.974,1.471,1.974c0.466,0.022,4.546,0.014,5.832,0.011
			c0.004,0.021,0.012,0.062,0.012,0.134c-0.006,1.177,0,5.442,0.004,7.425c0.001,0.562,0.457,1.01,1.019,1.01h1.01
			c0.273,0,0.531-0.102,0.723-0.291c0.191-0.191,0.299-0.446,0.299-0.717c-0.004-1.98-0.01-6.244-0.006-7.414
			c0.01-2.078-1.574-3.041-2.642-3.187l-0.205-0.012c-0.558,0.002-1.209,0.004-1.874,0.004c0.133-1.506,0.312-3.423,0.346-3.628
			C10.21,14.049,10.613,14.247,11.061,14.394z"/>
		<path d="M3.07,7.723c0-0.843-0.691-1.526-1.534-1.526C0.693,6.197,0,6.881,0,7.723v15.251c0,0.789,0.602,1.438,1.368,1.521
			C1.369,24.5,1.374,24.51,1.376,24.51h0.529v3.551c0,0.563,0.444,1.02,1.005,1.02c0.562,0,1.006-0.454,1.006-1.02V24.51h3.229
			v3.551c0,0.563,0.443,1.02,1.006,1.02c0.562,0,1.005-0.454,1.005-1.02V24.51h1.005v-3.066H3.07V7.723z"/>
		<path d="M30.523,17.87c-0.233-1.2-0.993-2.211-2.053-2.765v-0.968h1.482V7.432l-5.559-1.984V4.453h-2.012v10.214h2.012v-0.529
			H25.4v0.697c-1.322,0.438-2.391,1.578-2.67,3.06h-3.156c1.303-0.367,2.256-1.573,2.256-2.999c0-0.023-0.006-0.07-0.006-0.07
			h-6.216c0,0-0.006,0.048-0.006,0.07c0,1.423,0.953,2.629,2.255,2.999h-1.58c-0.56,0-1.018,0.474-1.018,1.031
			c0,0.563,0.457,1.032,1.018,1.032h2.031v9.155h11.219v-9.155h0.986c0.562,0,1.018-0.481,1.018-1.044
			C31.532,18.355,31.079,17.877,30.523,17.87z"/>
	</g>
</g>
<g>
</g>
<g>
</g>
<g>
</g>
<g>
</g>
<g>
</g>
<g>
</g>
<g>
</g>
<g>
</g>
<g>
</g>
<g>
</g>
<g>
</g>
<g>
</g>
<g>
</g>
<g>
</g>
<g>
</g>
</svg>
